Exact Audio Copy V0.99 prebeta 1 from 25. May 2007

EAC 抓取日志文件从10. 十月 2010, 0:35

菊秀芳 / 20世纪中华歌坛名人百集珍藏版

使用驱动器  ：PIONEER DVD-RW  DVR-115   Adapter: 0  ID: 0

读取模式     : 保护
使用精确流   : 是
废除音频缓冲 : 是
使用 C2 指针 : 否

读取偏移校正                   : 38
读取 Lead-In 和 Lead-Out       : 否
用静音填充抓取中丢失偏移的采样 : 是
去除首尾静音块                 : 否
已用接口                       : 已安装外部 ASPI 接口

所用输出格式 : 内部 WAV 函数
样本格式     : 44.100 Hz;16 Bit;立体声


被抓轨 CD 的 TOC

     音轨 |   开始   |   长度   | 起始扇区 | 结尾扇区 
    --------------------------------------------------
       1  |  0:00.00 |  3:10.12 |       0  |   14261  
       2  |  3:10.12 |  4:08.53 |   14262  |   32914  
       3  |  7:18.65 |  4:38.45 |   32915  |   53809  
       4  | 11:57.35 |  2:58.10 |   53810  |   67169  
       5  | 14:55.45 |  3:18.05 |   67170  |   82024  
       6  | 18:13.50 |  2:04.25 |   82025  |   91349  
       7  | 20:18.00 |  2:20.37 |   91350  |  101886  
       8  | 22:38.37 |  2:04.17 |  101887  |  111203  
       9  | 24:42.54 |  6:20.66 |  111204  |  139769  
      10  | 31:03.45 |  2:43.42 |  139770  |  152036  
      11  | 33:47.12 |  2:47.38 |  152037  |  164599  
      12  | 36:34.50 |  3:15.17 |  164600  |  179241  
      13  | 39:49.67 |  3:34.25 |  179242  |  195316  
      14  | 43:24.17 |  3:15.35 |  195317  |  209976  
      15  | 46:39.52 |  3:14.25 |  209977  |  224551  


范围状态及错误

已选择范围

     文件名 E:\文件夹\20世纪中华歌坛名人百集珍藏版-菊秀芳[lwg188原创]\菊秀芳 - 20世纪中华歌坛名人百集珍藏版.wav

     峰值电平 100.0 %
     范围质量 100.0 %
     复制 CRC 74B7F192
     复制成功

没有错误发生

状态报告结尾
